<?xml version="1.0" encoding="utf-8"?>
<!DOCTYPE svg PUBLIC "-//W3C//DTD SVG 1.0//EN" "http://www.w3.org/TR/2001/REC-SVG-20010904/DTD/svg10.dtd">
<svg version="1.0" xmlns="http://www.w3.org/2000/svg" width="2048px" height="2048px" viewBox="0 0 2048 2048" preserveAspectRatio="xMidYMid meet">
 <g fill="#ffffff">
  <path d="M0 1024 l0 -1024 1024 0 1024 0 0 1024 0 1024 -1024 0 -1024 0 0 -1024z m1073.2 818.7 c237.4 -158.7 427.5 -307.3 572.6 -447.4 l24.2 -23.5 0 -477.6 0 -477.7 -7.2 -2.7 c-4 -1.4 -27.1 -10.1 -51.3 -19.3 -76.4 -28.9 -109.5 -40.5 -216 -76 -70.1 -23.4 -130.6 -42.6 -199 -63.2 -42.9 -12.9 -150.5 -44.5 -166 -48.7 l-6 -1.7 -38.5 11.1 c-94.1 27.2 -171.6 50.4 -242.5 72.6 -99.6 31.3 -267.9 86.3 -344.2 112.7 l-20.3 6.9 0 482.3 0 482.3 22.8 22 c128 123.4 284.8 248.9 485.2 388.4 52.7 36.6 134.8 91.8 136.6 91.8 0.7 0 23 -14.5 49.6 -32.3z"/>
  <path d="M1008.5 1766.8 c-197.9 -133.2 -356.6 -254.8 -493 -377.6 -20.4 -18.4 -48.9 -45.2 -50.1 -47.2 -0.5 -0.9 -0.8 -134.7 -0.6 -334.7 l0.2 -333.3 3 0 c2.5 0 10.2 5.7 41.5 30.7 l38.5 30.7 0 276.9 0 277 10.8 11.5 c103.6 111.5 235.1 219.8 431.7 355.9 24.4 16.9 32.6 22.3 33.4 22.3 1.1 0 56.8 -38.4 97.1 -66.8 109.5 -77.3 199.6 -148.3 270.5 -213.1 21.6 -19.8 85.1 -83.1 99.3 -99 l10.2 -11.4 0 -276.7 0 -276.8 2.3 -1.5 c1.2 -0.8 18.3 -14.3 38.1 -30.1 31 -24.7 36.3 -28.6 39.2 -28.6 l3.4 0 0 333.4 0 333.4 -20.7 19.4 c-125.3 117.1 -292.9 248.2 -483.8 378.5 -48 32.7 -52.1 35.3 -55.7 35.2 -2.4 0 -6.4 -2.1 -15.3 -8.1z"/>
  <path d="M952 1381.3 c-64.7 -41.9 -177.4 -118.5 -248.9 -169.1 -11.2 -7.9 -21 -14.6 -21.7 -14.9 -1.1 -0.4 -1.4 -5.8 -1.4 -28.4 l0 -27.9 3.3 0 c2.8 0 12.7 6.2 53.8 33.8 27.7 18.6 74 49.7 102.9 69.1 l52.5 35.2 0.3 -34 0.2 -34.1 3.6 0 c2.8 0 6.7 2.2 20.7 11.8 9.5 6.6 27.2 18.6 39.5 26.7 l22.2 14.9 0 64.8 0 64.8 -3.7 0 c-3.1 -0.1 -7.3 -2.3 -23.3 -12.7z"/>
  <path d="M1070 1328.7 l0 -64.3 26.8 -18.1 c14.7 -10 32.3 -22 39.2 -26.7 10.2 -7 13.2 -8.6 16.3 -8.6 l3.7 0 0 33.5 c0 18.4 0.2 33.5 0.5 33.5 0.5 0 52.1 -34.5 108.5 -72.5 96.6 -65.1 95.9 -64.6 99.3 -64.3 l3.2 0.3 0.3 27.1 0.2 27.2 -18.2 12.9 c-76.7 54.4 -184 127.4 -251.6 171.2 -17.3 11.2 -20.9 13.1 -24.3 13.1 l-3.9 0 0 -64.3z"/>
  <path d="M917.9 1138.2 c-29.4 -19.7 -61.5 -41.4 -71.4 -48.2 -65.9 -45.2 -76.9 -52.9 -132.1 -92.2 -17.7 -12.5 -32.7 -22.8 -33.3 -22.8 -0.8 0 -1.1 -8.1 -1.1 -28 l0 -28 3.5 0 c2.8 0 8.3 3.2 29.2 17.2 21.7 14.4 118.3 79.7 166.5 112.4 l13.8 9.4 -0.3 -79.1 -0.2 -79.2 -2.5 -1.8 c-1.4 -1 -23.6 -16.6 -49.5 -34.7 -61.7 -43.1 -152.4 -108.2 -158.2 -113.5 -2.2 -2 -2.3 -2.6 -2.3 -21.9 l0 -19.8 3.9 0 c3.4 0 6.5 1.9 25.7 15.8 54.3 39.1 69.9 50.2 125.9 89.3 56 39.2 82.3 57.2 140.2 96.2 l3.3 2.2 0 131.3 0 131.2 -3.8 0 c-3.4 0 -10.3 -4.3 -57.3 -35.8z"/>
  <path d="M1070 1042.8 l0 -131.3 34.8 -23.1 c72.6 -48.5 168.9 -115.9 233.2 -163.3 17.1 -12.6 23.9 -17.1 25.9 -17.1 l2.9 0 0.4 19.8 c0.3 10.8 0.3 20.2 0.1 20.7 -1.2 3.2 -127.9 94.1 -198 142 l-13.2 9 0 79.3 0 79.4 2.7 -1.8 c3.2 -2.1 111.2 -75.2 164 -111.1 33.3 -22.6 37.7 -25.3 41.2 -25.3 l4 0 0 27.4 0 27.3 -4.2 2.8 c-2.4 1.6 -13.3 9.2 -24.3 17 -51.5 36.6 -167.7 116.4 -226.7 155.7 -30 20 -36.2 23.8 -39.2 23.8 l-3.6 0 0 -131.2z"/>
  <path d="M1018 907.8 c-9.4 -5.9 -83.9 -55.7 -109.5 -73.3 -109.1 -74.8 -221.7 -156.3 -301.3 -218.2 -44.6 -34.7 -63.1 -49.8 -133.9 -108.9 l-8.2 -6.9 0.2 -16.9 0.2 -16.8 9.5 -3.4 c29 -10.4 164.7 -55.3 230.5 -76.3 103.2 -32.8 263.9 -81.1 270.1 -81.1 l3.4 0 0 85.9 0 85.9 11.8 9.3 c6.4 5.1 15.8 12.5 20.7 16.4 5 4 10 7.8 11.1 8.5 1.9 1.2 4 -0.3 24.7 -16.5 l22.7 -17.7 0 -85.9 0 -85.9 3.4 0 c1.9 0 12.6 2.7 23.8 6.1 109.1 32.6 189.6 57.6 272.3 84.4 45.2 14.7 146.6 49.1 186.5 63.3 l27.5 9.8 0.3 15.5 0.2 15.5 -8.7 7.5 c-111.8 96 -231.7 186.9 -398.8 302.4 -31.8 21.9 -108.8 73.6 -134.1 89.8 -16.4 10.6 -18.4 11.2 -24.4 7.5z m78.5 -194.2 c103.4 -69.5 173.8 -119.1 277.6 -195.5 l26.7 -19.6 -14.2 -4.8 c-22.3 -7.6 -108.4 -35.4 -150.1 -48.6 -65.2 -20.5 -80.7 -25.2 -81.4 -24.6 -0.3 0.4 -0.7 25.8 -0.9 56.5 l-0.3 55.9 -34.2 25.4 c-82.6 61.4 -91.5 67.7 -95.5 67.7 -3.9 -0.1 -16.4 -9 -98.9 -70.6 l-31.3 -23.4 0 -56.6 c0 -44.9 -0.3 -56.5 -1.2 -56.1 -0.7 0.2 -15.5 4.8 -32.8 10.1 -31.5 9.7 -39.1 12.1 -102 32.1 -52.6 16.6 -111 35.8 -111 36.4 0 0.3 7.1 5.8 15.8 12.1 8.6 6.3 24.7 18 35.7 26 87.3 63.8 204.4 145.4 288 200.7 18.7 12.4 34.9 23.1 36 23.8 2.2 1.4 2.7 1.1 74 -46.9z"/>
 </g>
 <g fill="#082c4c">
  <path d="M979.5 1851.2 c-244.4 -163.7 -432.8 -310.9 -580.8 -453.4 l-22.7 -22 0 -485.3 0 -485.3 20.3 -6.9 c76.3 -26.4 244.6 -81.4 344.2 -112.7 71.9 -22.5 150.6 -46.1 244.1 -73 l40.1 -11.6 15.9 4.6 c136.2 39 251.2 74.3 357.9 109.9 106.5 35.5 139.6 47.1 216 76 24.2 9.2 47.3 17.9 51.3 19.3 l7.2 2.7 0 480.7 0 480.6 -24.2 23.5 c-128.3 123.9 -286 249.8 -491.3 392.2 -42 29.1 -132.3 89.5 -133.9 89.5 -0.6 0 -20.5 -13 -44.1 -28.8z m59.8 -89.4 c108.9 -73 230.9 -161.5 322.7 -234.1 75.6 -59.9 137.8 -113 198.3 -169.5 l20.7 -19.4 0 -330.4 c0 -293.2 -0.2 -330.3 -1.5 -329.8 -1.3 0.5 -1.5 -9.7 -1.5 -88.9 0 -79 0.2 -89.6 1.5 -90.7 1.3 -1.1 1.5 -3.6 1.3 -13.9 l-0.3 -12.5 -27.5 -9.8 c-111.7 -39.7 -270.4 -91.2 -409 -132.8 -28.7 -8.6 -65.4 -19.5 -69.2 -20.6 -1.3 -0.4 -1.8 0 -1.8 1.4 0 1.8 -2 1.3 -24.2 -5.1 l-24.3 -7 -24 7 c-22.1 6.5 -24 6.9 -24.3 5.1 -0.2 -1.2 -0.9 -1.7 -2 -1.4 -86.6 25.2 -189.4 56.5 -265.7 80.7 -65.8 21 -201.4 65.9 -230.5 76.3 l-9.5 3.4 -0.3 13.8 c-0.2 9.1 0.1 14 0.8 14.4 0.8 0.5 1.2 26.9 1.3 90.8 0.2 71.8 -0.1 89.8 -1 89 -1 -0.8 -1.3 65.7 -1.5 329.7 l-0.3 330.7 11 10.7 c52.4 51.1 152.2 136 240.5 204.6 53.9 41.9 135.5 101.9 199.5 146.6 29.5 20.7 104.3 71.7 105.3 71.8 0.2 0.1 7.2 -4.5 15.5 -10.1z"/>
  <path d="M1013 1677.3 c-5.2 -3.6 -13.8 -9.5 -19 -13.1 -117.1 -80.9 -206.4 -148.2 -285 -214.8 -52.6 -44.6 -110.1 -99.2 -153.2 -145.6 l-10.8 -11.5 0 -277 c0 -214 -0.3 -277.2 -1.2 -278.1 -0.9 -0.9 -0.4 -1.2 2.4 -1.2 2 0 4 0.5 4.3 1 0.8 1.2 41.7 32.6 73.5 56.2 67.1 50 143.9 104.3 251.7 178.3 l20.2 13.8 0.1 39.5 c0 33.3 -0.2 39.4 -1.3 38.9 -0.8 -0.3 -29.5 -19.5 -63.8 -42.8 -76.2 -51.6 -142.6 -96.2 -145.6 -97.8 l-2.3 -1.2 0 25.1 c0 21.6 0.2 25 1.5 25 1.3 0 1.5 5.7 1.5 44.8 l0.1 44.7 20.6 14.5 c11.4 8 31.3 22 44.2 31.1 13 9.1 50.6 35.4 83.6 58.4 33 23 61 42.7 62.3 43.8 2.5 2.3 3.1 6 0.7 5.1 -1.3 -0.5 -1.5 4 -1.7 35.6 l-0.3 36.1 -55.5 -37.2 c-30.5 -20.5 -78.2 -52.5 -106 -71.1 l-50.5 -33.9 -0.3 24.7 c-0.2 21.3 0 24.9 1.3 25.6 1.3 0.8 1.5 6.6 1.5 45.1 l0 44.2 10.7 9 c53 44.4 85.6 70.8 125.3 101.2 25.9 19.8 71.6 53.6 96.5 71.3 8.8 6.2 20.3 14.4 25.6 18.1 14.4 10.3 76.1 52.6 78.6 54 1.9 1 3.7 0.1 16.5 -8.7 125.3 -85.7 228.8 -163.5 305.6 -229.8 l17.4 -15 -0.4 -44.2 c-0.3 -41.8 -0.2 -44.3 1.5 -45.4 1.7 -1 1.8 -2.9 1.6 -24.8 -0.1 -13 -0.4 -24 -0.6 -24.5 -0.4 -0.6 -27.5 17.3 -94.8 62.8 -43.4 29.3 -115.5 77.5 -116 77.5 -0.3 0 -0.5 -16 -0.5 -35.6 0 -31.9 -0.2 -35.6 -1.6 -35 -1.2 0.5 -1.5 0 -1.2 -2.1 0.2 -2.2 4.3 -5.4 24.8 -19.6 65.8 -45.5 173.5 -121.3 183.3 -129 l3.9 -3 -0.3 -43.5 c-0.2 -38.7 -0.1 -43.5 1.3 -44.3 1.4 -0.8 1.6 -4.1 1.6 -25.4 0.1 -14.2 -0.3 -24.5 -0.8 -24.5 -0.6 0 -17.1 10.9 -36.7 24.3 -83 56.4 -172.7 117.2 -173.5 117.5 -0.5 0.2 -0.8 -17.4 -0.8 -39.2 l0.1 -39.5 15 -10.3 c82 -56.3 134.3 -93 197.3 -138.3 27.2 -19.6 89.9 -66.5 117.6 -87.9 14.8 -11.5 18 -13.5 21 -13.5 2.9 0 3.2 0.1 1.8 1 -1.7 0.9 -1.8 15.2 -1.8 277.8 l0 276.8 -10.2 11.4 c-14.2 15.9 -77.7 79.2 -99.3 99 -70.9 64.8 -160.9 135.7 -270.5 213.1 -45.4 32.1 -99.1 68.8 -100.4 68.7 -0.6 0 -5.4 -3 -10.6 -6.6z"/>
  <path d="M1021 764.4 c-43.1 -27.5 -146.5 -97.9 -218.5 -148.8 -75.2 -53.1 -163.5 -117.2 -163.5 -118.8 0 -0.4 19.2 -7 42.8 -14.7 38.1 -12.5 61.4 -20 125.2 -40.1 42.8 -13.5 87 -27 88.4 -27 1.4 0 1.6 5.8 1.6 57 l0 57 21.8 16.3 c24.6 18.6 101.1 75 103.9 76.8 2 1.2 12.3 -6.1 94.1 -66.8 l34.2 -25.5 0.2 -50.6 c0.2 -53.5 0.3 -63.1 1 -63.7 0.5 -0.5 27.2 7.7 85.8 26.2 93.9 29.6 171.5 55.2 170.3 56.3 -1.1 1 -60.6 44.8 -85.9 63.2 -81.4 59.2 -192 135.6 -280.4 193.9 l-17.6 11.6 -3.4 -2.3z"/>
 </g>
 <g fill="#c19347">
  <path d="M1019.5 1540.1 c-2.2 -1.5 -17.7 -12.1 -34.5 -23.6 -16.8 -11.5 -35.9 -24.7 -42.5 -29.4 -35.7 -25.3 -45.4 -32.3 -71.5 -51.5 -36.1 -26.5 -68.4 -51.2 -102 -78.1 -23.6 -18.9 -38.2 -30.9 -75.3 -62 l-10.7 -9 0 -46.3 c0 -38.8 0.2 -46.3 1.4 -45.9 0.7 0.3 10.5 7 21.7 14.9 54.2 38.3 123.4 85.7 185.9 127.4 49 32.7 82.3 54.4 83.4 54.4 0.3 0 0.6 -27.8 0.6 -61.8 l0 -61.8 -22.2 -14.9 c-12.3 -8.1 -30 -20 -39.3 -26.4 -9.4 -6.4 -17.8 -12 -18.7 -12.6 -1.6 -1 -99 -69.1 -147.9 -103.4 -12.9 -9.1 -32.8 -23.1 -44.2 -31.1 l-20.6 -14.5 -0.1 -46.2 c0 -33.4 0.3 -46.3 1.1 -46.3 0.6 0 15.6 10.3 33.3 22.8 58.6 41.7 79 55.9 144.1 100.4 36.4 24.8 111.1 74.7 113.1 75.5 1.2 0.4 1.4 -17.8 1.4 -127.8 l0 -128.4 -3.3 -2.2 c-57.9 -39 -84.2 -57 -140.2 -96.2 -56 -39.1 -71.6 -50.2 -125.9 -89.3 -12 -8.7 -22.3 -15.8 -22.7 -15.8 -0.5 0 -0.9 7.6 -0.9 16.8 0 16.2 0.1 16.9 2.3 18.9 5.9 5.4 113.5 82.5 169.2 121.3 19.3 13.4 36.4 25.4 38.2 26.7 l3.2 2.3 0 46.5 c0 36.1 -0.3 46.4 -1.2 45.9 -11.4 -6.6 -170.4 -117.7 -220.7 -154.3 -73 -53.1 -105.8 -78.1 -181.7 -138.8 l-25.3 -20.2 0.3 -88.5 c0.1 -48.6 0.5 -88.7 0.9 -89.1 0.4 -0.4 8 5.6 17 13.2 97.3 83 211.8 170 362.3 275.4 57.6 40.4 155.6 106.8 173.6 117.7 l3.5 2.1 25 -16.2 c32.3 -21.1 96.8 -64.4 130.4 -87.7 156.4 -108.4 269 -193.4 370.7 -279.6 13.5 -11.5 25.8 -21.9 27.4 -23.2 l2.9 -2.3 0 89.8 -0.1 89.8 -13.7 11 c-51.8 41.5 -94.6 74.8 -127.2 99.1 -18.7 14 -63.2 46.9 -71.6 52.9 -3.8 2.7 -16.6 11.9 -28.4 20.4 -26.4 18.9 -87.9 62.1 -125.5 88 -53.4 36.7 -59.8 41.1 -60.7 41.1 -0.4 0 -0.8 -21 -0.8 -46.7 l0.1 -46.8 13.2 -9 c39.6 -27 89.8 -62.4 129.2 -90.9 25.7 -18.6 67.9 -49.8 68.5 -50.7 0.3 -0.4 0.4 -8.4 0.2 -17.7 l-0.3 -17 -23 16.9 c-64.2 47.4 -160.5 114.9 -233.1 163.3 l-34.8 23.1 0 128.3 c0 70.5 0.3 128.2 0.6 128.2 2.7 0 197.1 -132.8 266.9 -182.3 12.1 -8.6 22.3 -15.7 22.6 -15.7 1.5 0 1.9 11.7 1.9 50.1 l0 40.7 -3.7 3 c-9.2 7.1 -100.9 71.7 -169.8 119.6 -38.6 26.8 -50.1 34.7 -91.7 62.9 l-26.8 18.1 0 61.3 c0 37.8 0.4 61.3 0.9 61.3 2.4 0 111.4 -72.3 177.6 -117.8 18.6 -12.8 80.6 -56.1 104.4 -72.9 l8.9 -6.2 0.1 46.8 0.2 46.8 -17.3 14.9 c-54.5 47 -120.1 98.1 -201.8 157 -44.7 32.3 -120 84.4 -121.7 84.4 -0.4 -0.1 -2.6 -1.3 -4.8 -2.9z"/>
  <path d="M1010.9 508.4 c-6.8 -5.4 -17.5 -13.8 -23.6 -18.7 l-11.3 -8.9 0 -85.9 0 -85.8 6.3 -1.9 c3.4 -1.1 14.3 -4.3 24.3 -7.2 l18 -5.2 24 7 23.9 6.9 0.3 86.1 0.2 86 -23.5 18.4 c-12.9 10 -24.1 18.4 -24.9 18.6 -0.7 0.2 -6.9 -4.1 -13.7 -9.4z"/>
 </g>
</svg>